<svg width="34" height="34" viewBox="0 0 34 34" fill="none" xmlns="http://www.w3.org/2000/svg">
<g clip-path="url(#clip0_505_4201)">
<path d="M9.8995 25.4558L8.48528 24.0416L9.19239 23.3345L8.48528 22.6274L9.19239 21.9203L8.48528 21.2132L9.19239 20.5061L8.48528 19.799L9.19239 19.0919L8.48528 18.3848L9.19239 17.6777L8.48528 16.9706L9.19239 16.2635L8.48528 15.5564L9.19239 14.8492L8.48528 14.1421L9.19239 13.435L8.48528 12.7279L9.19239 12.0208L8.48528 11.3137L9.19239 10.6066L8.48528 9.8995L9.19239 9.19239L9.8995 9.8995L10.6066 9.19239L11.3137 9.8995L12.0208 9.19239L12.7279 9.8995L12.0208 10.6066L12.7279 11.3137L12.0208 12.0208L12.7279 12.7279L12.0208 13.435L12.7279 14.1421L12.0208 14.8492L12.7279 15.5564L12.0208 16.2635L12.7279 16.9706L12.0208 17.6777L12.7279 18.3848L23.3345 7.77818L26.163 10.6066L15.5564 21.2132L16.2635 21.9203L16.9706 21.2132L17.6777 21.9203L18.3848 21.2132L19.0919 21.9203L19.799 21.2132L20.5061 21.9203L21.2132 21.2132L21.9203 21.9203L22.6274 21.2132L23.3345 21.9203L24.0416 21.2132L24.7487 21.9203L24.0416 22.6274L24.7487 23.3345L24.0416 24.0416L24.7487 24.7487L24.0416 25.4558L23.3345 24.7487L22.6274 25.4558L21.9203 24.7487L21.2132 25.4558L20.5061 24.7487L19.799 25.4558L19.0919 24.7487L18.3848 25.4558L17.6777 24.7487L16.9706 25.4558L16.2635 24.7487L15.5564 25.4558L14.8492 24.7487L14.1421 25.4558L13.435 24.7487L12.7279 25.4558L12.0208 24.7487L11.3137 25.4558L10.6066 24.7487L9.8995 25.4558Z" fill="currentColor"/>
</g>
<defs>
<clipPath id="clip0_505_4201">
<rect width="24" height="24" fill="white" transform="translate(16.9706) rotate(45)"/>
</clipPath>
</defs>
</svg>
