<svg width="34" height="34" viewBox="0 0 34 34" fill="none" xmlns="http://www.w3.org/2000/svg">
<g clip-path="url(#clip0_505_4201)">
<path d="M24.0416 8.48529L25.4558 9.8995L24.7487 10.6066L25.4558 11.3137L24.7487 12.0208L25.4558 12.7279L24.7487 13.435L25.4558 14.1421L24.7487 14.8492L25.4558 15.5564L24.7487 16.2635L25.4558 16.9706L24.7487 17.6777L25.4558 18.3848L24.7487 19.0919L25.4558 19.799L24.7487 20.5061L25.4558 21.2132L24.7487 21.9203L25.4558 22.6274L24.7487 23.3345L25.4558 24.0416L24.7487 24.7487L24.0416 24.0416L23.3345 24.7487L22.6274 24.0416L21.9203 24.7487L21.2132 24.0416L21.9203 23.3345L21.2132 22.6274L21.9203 21.9203L21.2132 21.2132L21.9203 20.5061L21.2132 19.799L21.9203 19.0919L21.2132 18.3848L21.9203 17.6777L21.2132 16.9706L21.9203 16.2635L21.2132 15.5564L10.6066 26.163L7.77818 23.3345L18.3848 12.7279L17.6777 12.0208L16.9706 12.7279L16.2635 12.0208L15.5564 12.7279L14.8492 12.0208L14.1421 12.7279L13.435 12.0208L12.7279 12.7279L12.0208 12.0208L11.3137 12.7279L10.6066 12.0208L9.8995 12.7279L9.19239 12.0208L9.8995 11.3137L9.19239 10.6066L9.8995 9.8995L9.19239 9.1924L9.8995 8.48529L10.6066 9.1924L11.3137 8.48529L12.0208 9.1924L12.7279 8.48529L13.435 9.1924L14.1421 8.48529L14.8492 9.1924L15.5564 8.48529L16.2635 9.1924L16.9706 8.48529L17.6777 9.1924L18.3848 8.48529L19.0919 9.1924L19.799 8.48529L20.5061 9.1924L21.2132 8.48529L21.9203 9.1924L22.6274 8.48529L23.3345 9.1924L24.0416 8.48529Z" fill="currentColor"/>
</g>
<defs>
<clipPath id="clip0_505_4201">
<rect width="24" height="24" fill="white" transform="translate(16.9706 33.9411) rotate(-135)"/>
</clipPath>
</defs>
</svg>
