<?xml version="1.0" encoding="UTF-8"?>
<svg version="1.1" xmlns="http://www.w3.org/2000/svg" width="24" height="24" viewBox="0 0 512 512">
<path d="M0 0 C22.44 0 44.88 0 68 0 C68 10.89 68 21.78 68 33 C78.89 33 89.78 33 101 33 C101 43.89 101 54.78 101 66 C122.78 66 144.56 66 167 66 C167 55.11 167 44.22 167 33 C185.81 33 204.62 33 224 33 C224 43.89 224 54.78 224 66 C234.89 66 245.78 66 257 66 C257 84.81 257 103.62 257 123 C246.11 123 235.22 123 224 123 C224 144.78 224 166.56 224 189 C234.89 189 245.78 189 257 189 C257 199.89 257 210.78 257 222 C267.89 222 278.78 222 290 222 C290 244.44 290 266.88 290 290 C279.11 290 268.22 290 257 290 C257 300.89 257 311.78 257 323 C246.11 323 235.22 323 224 323 C224 344.78 224 366.56 224 389 C234.89 389 245.78 389 257 389 C257 407.81 257 426.62 257 446 C246.11 446 235.22 446 224 446 C224 456.89 224 467.78 224 479 C205.19 479 186.38 479 167 479 C167 468.11 167 457.22 167 446 C145.22 446 123.44 446 101 446 C101 456.89 101 467.78 101 479 C90.11 479 79.22 479 68 479 C68 489.89 68 500.78 68 512 C45.56 512 23.12 512 0 512 C0 501.11 0 490.22 0 479 C-10.89 479 -21.78 479 -33 479 C-33 468.11 -33 457.22 -33 446 C-54.78 446 -76.56 446 -99 446 C-99 456.89 -99 467.78 -99 479 C-117.81 479 -136.62 479 -156 479 C-156 468.11 -156 457.22 -156 446 C-166.89 446 -177.78 446 -189 446 C-189 427.19 -189 408.38 -189 389 C-178.11 389 -167.22 389 -156 389 C-156 367.22 -156 345.44 -156 323 C-166.89 323 -177.78 323 -189 323 C-189 312.11 -189 301.22 -189 290 C-199.89 290 -210.78 290 -222 290 C-222 267.56 -222 245.12 -222 222 C-211.11 222 -200.22 222 -189 222 C-189 211.11 -189 200.22 -189 189 C-178.11 189 -167.22 189 -156 189 C-156 167.22 -156 145.44 -156 123 C-166.89 123 -177.78 123 -189 123 C-189 104.19 -189 85.38 -189 66 C-178.11 66 -167.22 66 -156 66 C-156 55.11 -156 44.22 -156 33 C-137.19 33 -118.38 33 -99 33 C-99 43.89 -99 54.78 -99 66 C-77.22 66 -55.44 66 -33 66 C-33 55.11 -33 44.22 -33 33 C-22.11 33 -11.22 33 0 33 C0 22.11 0 11.22 0 0 Z M-21 167 C-21 178.22 -21 189.44 -21 201 C-32.22 201 -43.44 201 -55 201 C-55 237.3 -55 273.6 -55 311 C-43.78 311 -32.56 311 -21 311 C-21 322.22 -21 333.44 -21 345 C15.3 345 51.6 345 89 345 C89 333.78 89 322.56 89 311 C100.22 311 111.44 311 123 311 C123 274.7 123 238.4 123 201 C111.78 201 100.56 201 89 201 C89 189.78 89 178.56 89 167 C52.7 167 16.4 167 -21 167 Z " fill="currentColor" transform="translate(222,0)"/>
</svg>
